<?xml version="1.0" encoding="utf-8"?>
<!-- Generator: Adobe Illustrator 17.1.0, SVG Export Plug-In . SVG Version: 6.00 Build 0)  -->
<!DOCTYPE svg PUBLIC "-//W3C//DTD SVG 1.1//EN" "http://www.w3.org/Graphics/SVG/1.1/DTD/svg11.dtd">
<svg version="1.1" id="bike-15" xmlns="http://www.w3.org/2000/svg" xmlns:xlink="http://www.w3.org/1999/xlink" x="0px" y="0px"
	 viewBox="0 0 1010 607.5809" enable-background="new 0 0 1010 607.5809" xml:space="preserve">
<path id="bike-15-bike-15" d="M198.6562,124.995c25.9502,3.4521,52.4136,8.5215,77.9004,14.4595
	c153.9463,35.8432,226.2637,11.9741,294.9024-14.9722c10.248,39.8276-40.7949,62.0596-128.0059,104.708
	C396.3662,219.5243,201.7041,173.7987,198.6562,124.995z M1010,449.5907c0,87.1123-70.877,157.9902-157.9902,157.9902
	c-87.1221,0-158-70.8779-158-157.9902c0-52.0977,25.4472-98.2383,64.4277-127.0195l-48.6953-94.8203
	c-16.4424,10.5537-31.7305,22.8828-45.5,36.8686c-29.4512,31.3257-48.9317,68.3276-64.8897,109.1616
	c-27.0361,69.043-75.9375,84.8047-134.999,84.8047c-59.0415,0-114.0488,0-114.0488,0s1.0947-12.5859-1.332-31.6211l-33.7813,7.6143
	c0.4932,4.9512,0.769,9.9424,0.769,15.0117c0,87.1123-70.8774,157.9902-157.9897,157.9902C70.8779,607.5809,0,536.7029,0,449.5907
	s70.8779-157.9853,157.9707-157.9853c66.7246,0,123.7939,41.6376,146.9229,100.246l33.9497-7.6543
	c-9.8335-31.9179-42.146-79.9472-92.8726-103.9936L75.7402,199.226l13.8482-29.0967
	c-40.3609-18.8784-78.8472-40.2622-78.8472-53.104h91.709c18.5918,0.6513,39.749,1.9336,62.0596,4.0835l0.375,5.977
	c3.3335,53.3799,94.7861,98.8897,271.7724,135.2256l11.2642,2.3081l24.5596-11.9741
	c86.0961-41.9385,148.2846-72.2583,131.7338-136.6065l-1.0253-3.9648c15.9785-6.3721,30.8418-11.54,45.6562-14.2627
	l-37.3809-55.8848l-43.7832,0.1377c-0.0195,0-0.04,0-0.04,0c-9.3203,0-16.8955-7.5351-16.915-16.8662
	c-0.0293-9.3105,7.5059-16.9052,16.8457-16.9648l41.2188-0.1182c1.8154-2.249,4.123-4.1821,6.8457-5.6025
	c10.7704-5.6221,24.0469-1.499,29.6581,9.2715l61.3008,96.6997c15.8398,12.1909,27.1836,31.7993,37.4014,53.1831
	c33.8701-12.6651,70.3056-19.5493,108.0127-19.5493c33.8515,0,67.1396,5.4643,98.9492,16.2544
	c11.4902,3.9257,17.6445,16.413,13.7187,27.8935c-3.8857,11.481-16.3525,17.6948-27.8535,13.7495
	c-27.2422-9.2514-55.7666-13.9663-84.8144-13.9663c-36.3848,0-71.42,7.4365-103.4356,21.0879l48.5469,94.4902
	c17.123-6.372,35.5469-10.0214,54.8887-10.0214C939.123,291.6054,1010,362.4784,1010,449.5907z M265.2334,449.5907
	c0-1.2627-0.1377-2.4658-0.1772-3.709l-54.5044,12.3096c-4.1426,25.3887-26,44.8183-52.5616,44.8183
	c-29.5009,0-53.4492-23.9277-53.4492-53.4189c0-29.5107,23.9483-53.4394,53.4492-53.4394c16.5899,0,31.2173,7.6933,41.0313,19.5888
	l55.5205-12.5469c-17.3301-35.9414-54.0508-60.8759-96.5713-60.8759c-59.1309,0-107.2436,48.1132-107.2436,107.2734
	c0,59.1397,48.1127,107.2725,107.2436,107.2725C217.1206,556.8632,265.2334,508.7303,265.2334,449.5907z M959.2734,449.5907
	c0-59.1602-48.1328-107.2734-107.2636-107.2734c-10.8399,0-21.295,1.6377-31.1582,4.6357l26.0293,49.7109
	c1.707-0.1777,3.3535-0.5126,5.1289-0.5126c29.5019,0,53.4297,23.9287,53.4297,53.4394c0,29.4912-23.9278,53.4189-53.4297,53.4189
	c-29.501,0-53.4493-23.9277-53.4493-53.4189c0-11.6582,3.8174-22.3105,10.1397-31.1084l-26.3545-50.3027
	c-22.9814,19.6865-37.6084,48.8427-37.6084,81.4111c0,59.1397,48.1123,107.2725,107.2725,107.2725
	C911.1406,556.8632,959.2734,508.7303,959.2734,449.5907z"/>
</svg>
